<?xml version="1.0" encoding="utf-8"?>
<!-- Svg Vector Icons : http://www.onlinewebfonts.com/icon -->
<!DOCTYPE svg PUBLIC "-//W3C//DTD SVG 1.1//EN" "http://www.w3.org/Graphics/SVG/1.1/DTD/svg11.dtd">
<svg version="1.1" xmlns="http://www.w3.org/2000/svg" xmlns:xlink="http://www.w3.org/1999/xlink" x="0px" y="0px" viewBox="0 0 1000 1000" enable-background="new 0 0 1000 1000" xml:space="preserve">
<metadata> Svg Vector Icons : http://www.onlinewebfonts.com/icon </metadata>
<g><g transform="translate(0.000000,512.000000) scale(0.100000,-0.100000)"><path d="M339.3,4983.6c-93.8-44-170.4-122.5-208.6-216.3c-26.8-63.2-30.6-553.2-30.6-4651.2c0-4417.7,1.9-4582.3,36.4-4656.9c44-93.8,122.5-170.4,216.3-208.6c63.2-26.8,555.1-30.6,4655-30.6h4582.3l101.4,53.6c82.3,42.1,112.9,72.7,155,155l53.6,101.4V112.3c0,4099.9-3.8,4591.8-30.6,4655c-38.3,93.8-114.8,172.3-208.6,216.3c-74.7,34.5-239.3,36.4-4660.7,36.4S413.9,5018.1,339.3,4983.6z M1449.4,4265.9c107.2-45.9,128.2-112.9,120.6-377.1c-7.7-317.7-21-331.1-338.8-338.8c-354.1-9.6-403.9,34.4-403.9,369.4c0,222,28.7,304.3,118.7,344.5C1032.2,4300.3,1361.4,4302.2,1449.4,4265.9z M2925.2,4263.9c93.8-38.3,122.5-118.7,122.5-344.5c0-335-49.8-379-403.9-369.4c-218.2,5.7-229.7,7.7-279.5,59.3c-51.7,49.8-53.6,61.3-59.3,279.5c-7.7,260.3,13.4,331.1,116.7,375.2C2506,4302.2,2837.1,4302.2,2925.2,4263.9z M4347.3,4281.2c32.5-7.7,80.4-34.5,107.2-61.2c45.9-45.9,47.9-55.5,47.9-298.6c0-361.8-23-382.8-392.4-371.3l-224,5.7l-55.5,63.2c-55.5,61.3-55.5,65.1-55.5,287.1c0,254.6,17.2,304.3,114.8,352.2C3958.7,4294.6,4219.1,4306.1,4347.3,4281.2z M9134.4,2780.5c38.3-38.3,38.3-63.2,38.3-3397.5c0-3338.1,0-3359.2-38.3-3397.5s-55.5-38.3-4145.9-34.5c-4040.6,5.7-4107.6,5.7-4134.4,42.1c-23,32.5-26.8,526.4-26.8,3393.6c0,3330.5,0,3355.4,38.3,3393.6c38.3,38.3,63.2,38.3,4134.4,38.3C9071.2,2818.8,9096.1,2818.8,9134.4,2780.5z"/><path d="M2754.8,897.1c-99.5-36.4-162.7-99.5-187.6-185.7c-28.7-91.9-9.6-193.3,51.7-264.1c24.9-30.6,342.6-273.7,702.5-539.8c359.8-264.2,666.1-491.9,679.5-505.3c21.1-19.1-101.4-116.7-631.6-507.2c-361.8-266.1-681.4-507.2-710.1-534c-84.2-76.6-114.8-149.3-103.4-246.9c11.5-109.1,61.3-174.2,172.3-229.7c158.9-80.4,143.6-88.1,1066.1,610.6c457.5,346.5,859.4,656.5,893.9,691c114.8,111,122.5,260.3,19.1,380.9c-44,51.7-1609.7,1244.2-1707.3,1301.6C2915.6,916.3,2837.1,925.8,2754.8,897.1z"/><path d="M5241.2-856.2c-185.6-57.4-256.5-292.9-132.1-440.2c99.5-118.7,65.1-114.8,1135-114.8c865.2,0,987.6,3.8,1045.1,30.6c143.6,68.9,201,246.9,122.5,384.7c-86.1,155-38.3,149.3-1138.9,153.1C5736.9-840.9,5271.8-846.6,5241.2-856.2z"/></g></g>
</svg>